<svg width="26" height="26" viewBox="0 0 26 26" fill="none" xmlns="http://www.w3.org/2000/svg">
<g id="wpf:books" clip-path="url(#clip0_78_9878)">
<path id="Vector" d="M9.87501 3.47225e-05C9.72987 0.0216176 9.59125 0.0748772 9.46901 0.156035C9.46901 0.156035 8.20401 0.952035 6.84401 1.81303C5.48401 2.67303 3.97101 3.62103 3.62501 3.81303C3.60366 3.8223 3.58265 3.8323 3.56201 3.84303C2.30601 4.61803 2.04501 5.88403 2.00001 6.59403C1.99701 6.62703 2.00001 6.65404 2.00001 6.68903C1.98901 6.95503 2.00001 7.12603 2.00001 7.12603V20.189C2.00001 22.087 4.21301 23 6.31301 23C7.01301 23 7.71301 22.887 8.31301 22.687C8.71301 22.487 9.00001 22.087 9.00001 21.687V11.187C9.00001 8.88703 9.50001 7.80703 11 6.90703C11.4 6.70704 15.594 3.81203 15.594 3.81203C15.794 3.61203 16 3.20603 16 2.90603V2.81203C16 2.41203 15.8 2.10603 15.5 1.90603C15.2 1.70603 14.8 1.70603 14.5 1.90603C14.4 2.00603 8.30001 6.11304 7.00001 6.81304C5.70001 7.61304 4.48701 7.80604 4.18701 7.40603C4.09401 7.31304 4.01301 7.02803 4.00001 6.75003V6.68703C4.00101 6.41503 4.07101 5.90303 4.62501 5.56203C5.18701 5.24903 6.58201 4.35803 7.93801 3.50003C8.51101 3.13703 8.58201 3.09803 9.03101 2.81203C9.09011 3.05633 9.23904 3.26941 9.44815 3.40885C9.65727 3.5483 9.91122 3.60389 10.1595 3.56455C10.4077 3.52522 10.632 3.39384 10.7878 3.19658C10.9436 2.99932 11.0193 2.75063 11 2.50003V1.00003C11.0011 0.8575 10.9718 0.716372 10.9139 0.586114C10.856 0.455856 10.7709 0.339476 10.6644 0.244778C10.5579 0.15008 10.4323 0.0792516 10.2962 0.0370409C10.16 -0.00516975 10.0164 -0.0177871 9.87501 3.47225e-05ZM17.875 3.50003C17.716 3.52648 17.5657 3.59098 17.437 3.68803C17.437 3.68803 12.403 7.07504 11.531 7.65603C11.5204 7.66647 11.5101 7.67714 11.5 7.68804C10.776 8.23104 10.347 8.87704 10.156 9.46803C10.049 9.80144 9.99631 10.1499 10 10.5V10.813C9.99856 10.844 9.99856 10.8751 10 10.906V23C10 24.9 12.188 26 14.188 26C15.088 26 15.9 25.806 16.5 25.406C17.7 24.706 23.5 20.188 23.5 20.188C23.8 19.988 24 19.706 24 19.406V6.40603C24 5.90603 23.806 5.60603 23.406 5.40603C23.106 5.20604 22.613 5.30003 22.313 5.50003C20.713 6.70004 16.406 10.088 15.406 10.688C14.006 11.488 12.687 11.688 12.187 11.188C11.987 10.988 12 10.8 12 10.5C12.006 10.328 12.025 10.18 12.063 10.062C12.119 9.88803 12.233 9.67403 12.656 9.34403C12.676 9.32803 12.666 9.32903 12.687 9.31303C13.41 8.83003 15.621 7.32303 17.063 6.34303C17.1447 6.5622 17.3006 6.7458 17.5037 6.86189C17.7067 6.97798 17.9441 7.01922 18.1744 6.97844C18.4047 6.93766 18.6134 6.81743 18.7643 6.63867C18.9151 6.45991 18.9985 6.23393 19 6.00003V4.50003C19.0011 4.3575 18.9718 4.21637 18.9139 4.08611C18.856 3.95586 18.7709 3.83948 18.6644 3.74478C18.5579 3.65008 18.4323 3.57925 18.2962 3.53704C18.16 3.49483 18.0164 3.48221 17.875 3.50003ZM22 10.813V12.813L17 16.687V14.687L22 10.813Z" fill="#00AF54"/>
</g>
<defs>
<clipPath id="clip0_78_9878">
<rect width="26" height="26" fill="white"/>
</clipPath>
</defs>
</svg>
